<svg id="Capa_1" enable-background="new 0 0 512 512" height="512" viewBox="0 0 512 512" width="512" xmlns="http://www.w3.org/2000/svg"><g><path d="m482 210h-39.958l1.654-30h30.804v-45c0-41.355-33.645-75-75-75h-68v-60h-151v60h-68c-41.355 0-75 33.645-75 75v45h30.805l1.654 30h-39.959v30h41.613l10.887 197.413v74.587h347v-74.587l10.887-197.413h41.613zm-131.331 212 6.673-242h56.308l-13.346 242zm-159.327 0-6.673-242h56.331v242zm79.658-242h56.331l-6.673 242h-49.658zm-60.5-150h91v30h-91zm-143 105c0-24.813 20.187-45 45-45h287c24.813 0 45 20.187 45 45v15h-377zm87.158 45 6.673 242h-49.635l-13.346-242zm-42.158 302v-30h287v30z"/></g></svg>